<svg width="18" height="18" viewBox="0 0 18 18" fill="none" xmlns="http://www.w3.org/2000/svg">
<path fill-rule="evenodd" clip-rule="evenodd" d="M3.10746 14.8926C-0.146905 11.6382 -0.146905 6.36182 3.10746 3.10745C6.36183 -0.146921 11.6382 -0.146921 14.8926 3.10745C18.1469 6.36182 18.1469 11.6382 14.8926 14.8926C11.6382 18.1469 6.36183 18.1469 3.10746 14.8926ZM9.00002 7.82149L6.643 5.46447C6.31756 5.13903 5.78992 5.13903 5.46449 5.46447C5.13905 5.78991 5.13905 6.31755 5.46449 6.64298L7.82151 9.00001L5.46449 11.357C5.13905 11.6825 5.13905 12.2101 5.46449 12.5355C5.78992 12.861 6.31756 12.861 6.643 12.5355L9.00002 10.1785L11.357 12.5355C11.6825 12.861 12.2101 12.861 12.5356 12.5355C12.861 12.2101 12.861 11.6825 12.5356 11.357L10.1785 9.00001L12.5356 6.64298C12.861 6.31755 12.861 5.78991 12.5356 5.46447C12.2101 5.13903 11.6825 5.13903 11.357 5.46447L9.00002 7.82149Z" fill="#BFBFBF"/>
</svg>
