<svg width="10" height="10" viewBox="0 0 10 10" fill="none" xmlns="http://www.w3.org/2000/svg">
<path fill-rule="evenodd" clip-rule="evenodd" d="M6.06069 4.99997L9.773 8.71228C10.0659 9.00517 10.0659 9.48004 9.773 9.77294C9.4801 10.0658 9.00523 10.0658 8.71234 9.77294L5.00003 6.06063L1.28772 9.77294C0.994822 10.0658 0.519948 10.0658 0.227055 9.77294C-0.0658381 9.48004 -0.0658381 9.00517 0.227055 8.71228L3.93937 4.99997L0.227055 1.28765C-0.0658381 0.994761 -0.0658381 0.519887 0.227055 0.226994C0.519948 -0.0658991 0.994822 -0.0658991 1.28772 0.226994L5.00003 3.9393L8.71234 0.226994C9.00523 -0.0658991 9.4801 -0.0658991 9.773 0.226994C10.0659 0.519887 10.0659 0.994761 9.773 1.28765L6.06069 4.99997Z" fill="#313131"/>
</svg>
