<svg width="21" height="20" viewBox="0 0 21 20" fill="none" xmlns="http://www.w3.org/2000/svg">
<path fill-rule="evenodd" clip-rule="evenodd" d="M6.33333 4.16666H3.83333C3.3731 4.16666 3 3.79357 3 3.33333C3 2.87309 3.3731 2.5 3.83333 2.5H6.33333C6.33333 2.03976 6.70643 1.66666 7.16667 1.66666C7.6269 1.66666 8 2.03976 8 2.5V4.16666C8 4.6269 7.6269 5 7.16667 5C6.70643 5 6.33333 4.6269 6.33333 4.16666ZM9.66667 2.5H17.1667C17.6269 2.5 18 2.87309 18 3.33333C18 3.79357 17.6269 4.16666 17.1667 4.16666H9.66667C9.20643 4.16666 8.83333 3.79357 8.83333 3.33333C8.83333 2.87309 9.20643 2.5 9.66667 2.5ZM6.33333 17.5H3.83333C3.3731 17.5 3 17.1269 3 16.6667C3 16.2064 3.3731 15.8333 3.83333 15.8333H6.33333C6.33333 15.3731 6.70643 15 7.16667 15C7.6269 15 8 15.3731 8 15.8333V17.5C8 17.9602 7.6269 18.3333 7.16667 18.3333C6.70643 18.3333 6.33333 17.9602 6.33333 17.5ZM9.66667 15.8333H17.1667C17.6269 15.8333 18 16.2064 18 16.6667C18 17.1269 17.6269 17.5 17.1667 17.5H9.66667C9.20643 17.5 8.83333 17.1269 8.83333 16.6667C8.83333 16.2064 9.20643 15.8333 9.66667 15.8333ZM13 10.8333H3.83333C3.3731 10.8333 3 10.4602 3 10C3 9.53976 3.3731 9.16666 3.83333 9.16666H13C13 8.70643 13.3731 8.33333 13.8333 8.33333C14.2936 8.33333 14.6667 8.70643 14.6667 9.16666V10.8333C14.6667 11.2936 14.2936 11.6667 13.8333 11.6667C13.3731 11.6667 13 11.2936 13 10.8333ZM16.3333 9.16666H17.1667C17.6269 9.16666 18 9.53976 18 10C18 10.4602 17.6269 10.8333 17.1667 10.8333H16.3333C15.8731 10.8333 15.5 10.4602 15.5 10C15.5 9.53976 15.8731 9.16666 16.3333 9.16666Z" fill="#108EE9"/>
</svg>
