<svg width="18" height="18" viewBox="0 0 18 18" fill="none" xmlns="http://www.w3.org/2000/svg">
<path fill-rule="evenodd" clip-rule="evenodd" d="M16.3828 0.796875L16.3102 0.798308C15.3719 0.835424 14.6177 1.58901 14.5796 2.52713L14.5781 2.60156V13.9219C14.5781 15.0092 13.6967 15.8906 12.6094 15.8906H9.16103C9.88153 14.9918 10.3125 13.8509 10.3125 12.6094C10.3125 9.70988 7.96199 7.35938 5.0625 7.35938C4.48956 7.35938 3.93805 7.45115 3.42188 7.62081V2.76562C3.42188 1.67831 4.30331 0.796875 5.39062 0.796875H16.3828ZM5.39062 5.71875H12.6094C12.7906 5.71875 12.9375 5.86566 12.9375 6.04688C12.9375 6.22809 12.7906 6.375 12.6094 6.375H5.39062C5.20941 6.375 5.0625 6.22809 5.0625 6.04688C5.0625 5.86566 5.20941 5.71875 5.39062 5.71875ZM12.6094 4.07812H5.39062C5.20941 4.07812 5.0625 4.22503 5.0625 4.40625C5.0625 4.58747 5.20941 4.73438 5.39062 4.73438H12.6094C12.7906 4.73438 12.9375 4.58747 12.9375 4.40625C12.9375 4.22503 12.7906 4.07812 12.6094 4.07812ZM5.39062 2.4375H9.98438C10.1656 2.4375 10.3125 2.58441 10.3125 2.76562C10.3125 2.94684 10.1656 3.09375 9.98438 3.09375H5.39062C5.20941 3.09375 5.0625 2.94684 5.0625 2.76562C5.0625 2.58441 5.20941 2.4375 5.39062 2.4375Z" fill="#FF5D55"/>
<path d="M16.3828 1.45312C17.0171 1.45312 17.5312 1.9673 17.5312 2.60156V6.70312H15.2344V2.60156C15.2344 1.9673 15.7485 1.45312 16.3828 1.45312Z" fill="#FF5D55"/>
<path d="M3.75 9.98438C4.11244 9.98438 4.40625 10.2782 4.40625 10.6406C4.40625 11.0031 4.11244 11.2969 3.75 11.2969C3.38756 11.2969 3.09375 11.0031 3.09375 10.6406C3.09375 10.2782 3.38756 9.98438 3.75 9.98438Z" fill="#FF5D55"/>
<path d="M7.35938 14.5781C7.35938 14.2157 7.06556 13.9219 6.70312 13.9219C6.34069 13.9219 6.04688 14.2157 6.04688 14.5781C6.04688 14.9406 6.34069 15.2344 6.70312 15.2344C7.06556 15.2344 7.35938 14.9406 7.35938 14.5781Z" fill="#FF5D55"/>
<path fill-rule="evenodd" clip-rule="evenodd" d="M5.0625 17.2031C7.59956 17.2031 9.65625 15.1464 9.65625 12.6094C9.65625 10.0723 7.59956 8.01562 5.0625 8.01562C2.52544 8.01562 0.46875 10.0723 0.46875 12.6094C0.46875 15.1464 2.52544 17.2031 5.0625 17.2031ZM3.75 9.32812C3.02513 9.32812 2.4375 9.91575 2.4375 10.6406C2.4375 11.3655 3.02513 11.9531 3.75 11.9531C4.47487 11.9531 5.0625 11.3655 5.0625 10.6406C5.0625 9.91575 4.47487 9.32812 3.75 9.32812ZM6.67878 9.52342C6.51481 9.44626 6.31933 9.51663 6.24217 9.6806L3.61717 15.2587L3.60287 15.2943C3.55054 15.45 3.62209 15.6237 3.77435 15.6953C3.93832 15.7725 4.13379 15.7021 4.21096 15.5382L6.83596 9.96003L6.85025 9.92446C6.90259 9.76874 6.83103 9.59507 6.67878 9.52342ZM5.39062 14.5781C5.39062 13.8533 5.97825 13.2656 6.70312 13.2656C7.428 13.2656 8.01562 13.8533 8.01562 14.5781C8.01562 15.303 7.428 15.8906 6.70312 15.8906C5.97825 15.8906 5.39062 15.303 5.39062 14.5781Z" fill="#FF5D55"/>
</svg>
