<svg width="16" height="16" viewBox="0 0 16 16" fill="none" xmlns="http://www.w3.org/2000/svg">
<path fill-rule="evenodd" clip-rule="evenodd" d="M7.16667 0.5C10.8486 0.5 13.8333 3.48477 13.8333 7.16667C13.8333 8.70726 13.3108 10.1258 12.4332 11.2547L15.2559 14.0774C15.5814 14.4028 15.5814 14.9305 15.2559 15.2559C14.9305 15.5814 14.4028 15.5814 14.0774 15.2559L11.2547 12.4332C10.1258 13.3108 8.70726 13.8333 7.16667 13.8333C3.48477 13.8333 0.5 10.8486 0.5 7.16667C0.5 3.48477 3.48477 0.5 7.16667 0.5ZM7.16667 2.16667C4.40524 2.16667 2.16667 4.40524 2.16667 7.16667C2.16667 9.92809 4.40524 12.1667 7.16667 12.1667C9.92809 12.1667 12.1667 9.92809 12.1667 7.16667C12.1667 4.40524 9.92809 2.16667 7.16667 2.16667Z" fill="#D1D1D1"/>
</svg>
