<svg width="21" height="20" viewBox="0 0 21 20" fill="none" xmlns="http://www.w3.org/2000/svg">
<path fill-rule="evenodd" clip-rule="evenodd" d="M3.83333 15.8333H6.33333C6.79357 15.8333 7.16667 16.2064 7.16667 16.6667C7.16667 17.1269 6.79357 17.5 6.33333 17.5H3.83333C3.3731 17.5 3 17.1269 3 16.6667C3 16.2064 3.3731 15.8333 3.83333 15.8333ZM3.83333 9.16667H9.66667C10.1269 9.16667 10.5 9.53976 10.5 10C10.5 10.4602 10.1269 10.8333 9.66667 10.8333H3.83333C3.3731 10.8333 3 10.4602 3 10C3 9.53976 3.3731 9.16667 3.83333 9.16667ZM3.83333 2.5H17.1667C17.6269 2.5 18 2.8731 18 3.33333C18 3.79357 17.6269 4.16667 17.1667 4.16667H3.83333C3.3731 4.16667 3 3.79357 3 3.33333C3 2.8731 3.3731 2.5 3.83333 2.5ZM13 14.6536V6.66667C13 6.20643 13.3731 5.83333 13.8333 5.83333C14.2936 5.83333 14.6667 6.20643 14.6667 6.66667V14.6536L16.5776 12.7439C16.9031 12.4186 17.4308 12.4187 17.7561 12.7443C18.0814 13.0698 18.0813 13.5974 17.7557 13.9228L14.4224 17.254C14.097 17.5792 13.5697 17.5792 13.2443 17.254L9.91093 13.9228C9.58539 13.5974 9.58522 13.0698 9.91056 12.7443C10.2359 12.4187 10.7635 12.4186 11.0891 12.7439L13 14.6536Z" fill="#108EE9"/>
</svg>
